<svg xmlns="http://www.w3.org/2000/svg" width="119.66407" height="40" viewBox="0 0 119.66407 40">
  <title>Download on the App Store</title>
  <g>
    <g>
      <path d="M110.13477,0H9.53468c-.3667,0-.729,0-1.09473.002-.30615.002-.60986.00781-.91895.0127A13.21476,13.21476,0,0,0,5.5171.19141a6.66509,6.66509,0,0,0-1.90088.627A6.43779,6.43779,0,0,0,1.99757,1.99707,6.25844,6.25844,0,0,0,.81935,3.61816a6.60119,6.60119,0,0,0-.625,1.90332,12.993,12.993,0,0,0-.1792,2.002C.00587,7.83008.00489,8.1377,0,8.44434V31.5586c.00489.3105.00587.6113.01515.9219a12.99232,12.99232,0,0,0,.1792,2.0019,6.58756,6.58756,0,0,0,.625,1.9043A6.20778,6.20778,0,0,0,1.99757,38.001a6.27445,6.27445,0,0,0,1.61865,1.1787,6.70082,6.70082,0,0,0,1.90088.6308,13.45514,13.45514,0,0,0,2.0039.1768c.30909.0068.6128.0107.91895.0107C8.80567,40,9.168,40,9.53468,40H110.13477c.3594,0,.7246,0,1.084-.002.3047,0,.6172-.0039.9219-.0107a13.279,13.279,0,0,0,2-.1768,6.80432,6.80432,0,0,0,1.9082-.6308,6.27742,6.27742,0,0,0,1.6172-1.1787,6.39482,6.39482,0,0,0,1.1816-1.6143,6.60413,6.60413,0,0,0,.6191-1.9043,13.50643,13.50643,0,0,0,.1856-2.0019c.0039-.3106.0039-.6114.0039-.9219.0078-.3633.0078-.7246.0078-1.0938V9.53613c0-.36621,0-.72949-.0078-1.09179,0-.30664,0-.61426-.0039-.9209a13.5071,13.5071,0,0,0-.1856-2.002,6.6177,6.6177,0,0,0-.6191-1.90332,6.46619,6.46619,0,0,0-2.7988-2.7998,6.76754,6.76754,0,0,0-1.9082-.627,13.04394,13.04394,0,0,0-2-.17676c-.3047-.00488-.6172-.01074-.9219-.01269C110.85937,0,110.49417,0,110.13477,0Z" style="fill: #a6a6a6"/>
      <path d="M8.44483,39.125c-.30468,0-.602-.0039-.90429-.0107a12.68714,12.68714,0,0,1-1.86914-.1631,5.88381,5.88381,0,0,1-1.65674-.5479,5.40573,5.40573,0,0,1-1.397-1.0166,5.32082,5.32082,0,0,1-1.02051-1.3965,5.72186,5.72186,0,0,1-.543-1.6572,12.41351,12.41351,0,0,1-.1665-1.875c-.00634-.2109-.01464-.9131-.01464-.9131V8.44434S.88185,7.75293.8877,7.5498a12.37039,12.37039,0,0,1,.16553-1.87207,5.7555,5.7555,0,0,1,.54346-1.6621A5.37349,5.37349,0,0,1,2.61183,2.61768,5.56543,5.56543,0,0,1,4.01417,1.59521a5.82309,5.82309,0,0,1,1.65332-.54394A12.58589,12.58589,0,0,1,7.543.88721L8.44532.875h102.769l.9131.0127a12.38493,12.38493,0,0,1,1.8584.16259,5.93833,5.93833,0,0,1,1.6709.54785,5.59374,5.59374,0,0,1,2.415,2.41993A5.76267,5.76267,0,0,1,119.2139,5.667a12.995,12.995,0,0,1,.1738,1.88721c.0029.2832.0029.5874.0029.89014.0079.375.0079.73193.0079,1.09179V30.4648c0,.3633,0,.7178-.0079,1.0752,0,.3252,0,.6231-.0039.9297a12.73126,12.73126,0,0,1-.1709,1.8535,5.739,5.739,0,0,1-.54,1.67,5.48029,5.48029,0,0,1-1.0156,1.3857,5.4129,5.4129,0,0,1-1.3994,1.0225,5.86168,5.86168,0,0,1-1.668.5498,12.54218,12.54218,0,0,1-1.8692.1631c-.2929.0068-.5996.0107-.8974.0107l-1.084.002Z"/>
    </g>
    <g>
      <path d="M37.82619,8.731a2.63964,2.63964,0,0,1,2.80762,2.96484c0,1.90625-1.03027,3.002-2.80762,3.002H35.67092V8.731Zm-1.22852,5.123h1.125a1.87588,1.87588,0,0,0,1.96777-2.146,1.881,1.881,0,0,0-1.96777-2.13379h-1.125Z" style="fill: #fff"/>
      <path d="M41.68068,12.44434a2.13323,2.13323,0,1,1,4.24707,0,2.13358,2.13358,0,1,1-4.24707,0Zm3.333,0c0-.97607-.43848-1.54687-1.208-1.54687-.77246,0-1.207.5708-1.207,1.54688,0,.98389.43457,1.55029,1.207,1.55029C44.57522,13.99463,45.01369,13.42432,45.01369,12.44434Z" style="fill: #fff"/>
      <path d="M51.57326,14.69775h-.84863V13.47119h-.07031a1.32683,1.32683,0,0,1-1.19238.80176,1.74236,1.74236,0,0,1-1.61133-1.96387,1.69836,1.69836,0,0,1,1.58984-1.93848,1.32921,1.32921,0,0,1,1.21387.79395h.06641V8.437h.84863Zm-3.52637-2.24121a1.00546,1.00546,0,0,0,1.02246,1.14551,1.01538,1.01538,0,0,0,1.00684-1.167,1.00547,1.00547,0,0,0-1.02246-1.14551A1.01538,1.01538,0,0,0,48.04689,12.45654Z" style="fill: #fff"/>
      <path d="M55.24463,13.48193a1.828,1.828,0,0,1-1.95117,1.30273,2.04531,2.04531,0,0,1-2.08008-2.32422A2.07685,2.07685,0,0,1,53.29346,10.418a2.10276,2.10276,0,0,1,2.13281,2.35254v.3252h-3.2832v.0498a1.1902,1.1902,0,0,0,1.19922,1.29,1.07934,1.07934,0,0,0,1.07129-.5459Zm-3.126-1.45117h2.27441a1.08647,1.08647,0,0,0-1.1084-1.1665A1.15162,1.15162,0,0,0,52.11861,12.03076Z" style="fill: #fff"/>
      <path d="M63.85553,13.48193a1.828,1.828,0,0,1-1.95117,1.30273,2.04531,2.04531,0,0,1-2.08008-2.32422A2.07685,2.07685,0,0,1,61.904,10.418a2.10276,2.10276,0,0,1,2.13281,2.35254v.3252h-3.2832v.0498a1.1902,1.1902,0,0,0,1.19922,1.29,1.07934,1.07934,0,0,0,1.07129-.5459Zm-3.126-1.45117h2.27441a1.08647,1.08647,0,0,0-1.1084-1.1665A1.15162,1.15162,0,0,0,60.72951,12.03076Z" style="fill: #fff"/>
      <path d="M65.85553,10.19482h.85547v.71533h.06641a1.348,1.348,0,0,1,1.34375-.80225,1.46456,1.46456,0,0,1,1.55859,1.6748v2.915h-.88867V12.00586c0-.72363-.31445-1.0835-.97168-1.0835a1.03294,1.03294,0,0,0-1.0752,1.14111v2.63428h-.88867Z" style="fill: #fff"/>
      <path d="M71.09959,8.437h.88867v6.26074h-.88867Z" style="fill: #fff"/>
      <path d="M74.10553,12.44434a2.13323,2.13323,0,1,1,4.24707,0,2.13358,2.13358,0,1,1-4.24707,0Zm3.333,0c0-.97607-.43848-1.54687-1.208-1.54687-.77246,0-1.207.5708-1.207,1.54688,0,.98389.43457,1.55029,1.207,1.55029C77.00006,13.99463,77.43854,13.42432,77.43854,12.44434Z" style="fill: #fff"/>
      <path d="M78.60553,10.19482h.856v.71533h.066a1.348,1.348,0,0,1,1.344-.80225,1.46456,1.46456,0,0,1,1.559,1.6748v2.915H81.535V12.00586c0-.72363-.314-1.0835-.972-1.0835a1.033,1.033,0,0,0-1.075,1.14111v2.63428h-.889Z" style="fill: #fff"/>
      <path d="M84.33854,8.437h.89014v2.48145h.07031a1.3856,1.3856,0,0,1,1.373-.80664,1.48339,1.48339,0,0,1,1.55078,1.67871v2.90723H87.33854v-2.688c0-.71924-.335-1.0835-.96289-1.0835a1.05194,1.05194,0,0,0-1.13379,1.1416v2.62988h-.89014Z" style="fill: #fff"/>
      <path d="M93.09959,10.19482h.85547v.71533h.06641a1.348,1.348,0,0,1,1.34375-.80225,1.46456,1.46456,0,0,1,1.55859,1.6748v2.915H96.035V12.00586c0-.72363-.31445-1.0835-.97168-1.0835a1.03294,1.03294,0,0,0-1.0752,1.14111v2.63428h-.88867Z" style="fill: #fff"/>
      <path d="M98.34959,12.44434a2.13323,2.13323,0,1,1,4.24707,0,2.13358,2.13358,0,1,1-4.24707,0Zm3.333,0c0-.97607-.43848-1.54687-1.208-1.54687-.77246,0-1.207.5708-1.207,1.54688,0,.98389.43457,1.55029,1.207,1.55029C101.24412,13.99463,101.68264,13.42432,101.68264,12.44434Z" style="fill: #fff"/>
      <path d="M102.85553,10.19482h.85547v.71533h.06641a1.348,1.348,0,0,1,1.34375-.80225,1.46456,1.46456,0,0,1,1.55859,1.6748v2.915h-.88867V12.00586c0-.72363-.31445-1.0835-.97168-1.0835a1.03294,1.03294,0,0,0-1.0752,1.14111v2.63428h-.88867Z" style="fill: #fff"/>
      <path d="M108.58854,8.437h.89014v2.48145h.07031a1.3856,1.3856,0,0,1,1.373-.80664,1.48339,1.48339,0,0,1,1.55078,1.67871v2.90723h-.88867v-2.688c0-.71924-.335-1.0835-.96289-1.0835a1.05194,1.05194,0,0,0-1.13379,1.1416v2.62988h-.89014Z" style="fill: #fff"/>
    </g>
    <g>
      <path d="M47.64941,19.88672a5.94767,5.94767,0,0,1,1.355-2.09961,6.00642,6.00642,0,0,1,2.08887-1.38965,6.98135,6.98135,0,0,1,2.59766-.501,6.55292,6.55292,0,0,1,3.07324.69727,5.568,5.568,0,0,1,2.1416,2.1416,7.29127,7.29127,0,0,1,.001,6.40527,5.55662,5.55662,0,0,1-2.14209,2.14111,6.54615,6.54615,0,0,1-3.07275.69775h-.00049a6.97642,6.97642,0,0,1-2.59717-.501,6.00642,6.00642,0,0,1-2.08887-1.38965,5.94767,5.94767,0,0,1-1.355-2.09961,7.01208,7.01208,0,0,1,0-4.8999Zm1.531,4.4209a4.473,4.473,0,0,0,1.03027,1.584,4.53882,4.53882,0,0,0,1.584,1.03027,5.04156,5.04156,0,0,0,1.92676.35547,5.18969,5.18969,0,0,0,1.92774-.35547,4.53175,4.53175,0,0,0,1.584-1.03027,4.47087,4.47087,0,0,0,1.03027-1.584,5.38489,5.38489,0,0,0,0-3.96289,4.47087,4.47087,0,0,0-1.03027-1.584,4.53175,4.53175,0,0,0-1.584-1.03027,5.18969,5.18969,0,0,0-1.92774-.35547,5.04156,5.04156,0,0,0-1.92676.35547,4.53882,4.53882,0,0,0-1.584,1.03027,4.473,4.473,0,0,0-1.03027,1.584,5.38489,5.38489,0,0,0,0,3.96289Z" style="fill: #fff"/>
      <path d="M64.89014,19.64258a3.41953,3.41953,0,0,0-1.03809-.501,4.45346,4.45346,0,0,0-1.24512-.16895,3.89688,3.89688,0,0,0-1.374.235,3.14913,3.14913,0,0,0-1.08057.67822,3.01394,3.01394,0,0,0-.709,1.06055,3.6001,3.6001,0,0,0-.25244,1.37451,3.70376,3.70376,0,0,0,.25244,1.40576,3.01394,3.01394,0,0,0,.709,1.06055,3.14913,3.14913,0,0,0,1.08057.67822,3.89688,3.89688,0,0,0,1.374.235,4.45346,4.45346,0,0,0,1.24512-.16895,3.41953,3.41953,0,0,0,1.03809-.501l.08838.08789a3.68638,3.68638,0,0,1-1.16455.57959,4.81707,4.81707,0,0,1-1.39844.19971,4.45346,4.45346,0,0,1-1.666-.30176,3.94745,3.94745,0,0,1-1.30615-.83691,3.80037,3.80037,0,0,1-.85059-1.26074,4.078,4.078,0,0,1-.30225-1.584,3.56852,3.56852,0,0,1,.30225-1.47461,3.80037,3.80037,0,0,1,.85059-1.26074,4.05826,4.05826,0,0,1,1.30615-.85107,4.45346,4.45346,0,0,1,1.666-.30176,4.81707,4.81707,0,0,1,1.39844.19971,3.68638,3.68638,0,0,1,1.16455.57959Z" style="fill: #fff"/>
      <path d="M66.4248,15.55176h1.23145v1.23145H66.4248Zm0,3.24072h1.23145v7.06055H66.4248Z" style="fill: #fff"/>
      <path d="M69.40137,18.79248h1.23145v1.26074h.03857a2.32387,2.32387,0,0,1,.91992-.999,2.88661,2.88661,0,0,1,1.459-.37451,3.20544,3.20544,0,0,1,1.19336.19971,2.0607,2.0607,0,0,1,.80127.56543,2.32387,2.32387,0,0,1,.47168.86572,3.86536,3.86536,0,0,1,.15479,1.12256v4.41992H74.43555V22.71729a3.8832,3.8832,0,0,0-.08838-.86572,1.77638,1.77638,0,0,0-.28857-.67773,1.39893,1.39893,0,0,0-.54395-.43994,2.03447,2.03447,0,0,0-.84912-.15479,2.67084,2.67084,0,0,0-.86621.13037,1.78125,1.78125,0,0,0-.67773.40381,1.88337,1.88337,0,0,0-.44922.69189,2.72368,2.72368,0,0,0-.16016,1.001v3.03174H69.40137Z" style="fill: #fff"/>
      <path d="M80.877,18.79248h1.23145v1.26074h.03857a2.32387,2.32387,0,0,1,.91992-.999,2.88661,2.88661,0,0,1,1.459-.37451,3.20544,3.20544,0,0,1,1.19336.19971,2.0607,2.0607,0,0,1,.80127.56543,2.32387,2.32387,0,0,1,.47168.86572,3.86536,3.86536,0,0,1,.15479,1.12256v4.41992H85.91113V22.71729a3.8832,3.8832,0,0,0-.08838-.86572,1.77638,1.77638,0,0,0-.28857-.67773,1.39893,1.39893,0,0,0-.54395-.43994,2.03447,2.03447,0,0,0-.84912-.15479,2.67084,2.67084,0,0,0-.86621.13037,1.78125,1.78125,0,0,0-.67773.40381,1.88337,1.88337,0,0,0-.44922.69189,2.72368,2.72368,0,0,0-.16016,1.001v3.03174H80.877Z" style="fill: #fff"/>
      <path d="M89.793,15.55176h1.23145v1.23145H89.793Zm0,3.24072h1.23145v7.06055H89.793Z" style="fill: #fff"/>
      <path d="M92.76953,18.79248H94.001v1.26074h.03857a2.32387,2.32387,0,0,1,.91992-.999,2.88661,2.88661,0,0,1,1.459-.37451,3.20544,3.20544,0,0,1,1.19336.19971,2.0607,2.0607,0,0,1,.80127.56543,2.32387,2.32387,0,0,1,.47168.86572,3.86536,3.86536,0,0,1,.15479,1.12256v4.41992H97.80371V22.71729a3.8832,3.8832,0,0,0-.08838-.86572,1.77638,1.77638,0,0,0-.28857-.67773,1.39893,1.39893,0,0,0-.54395-.43994,2.03447,2.03447,0,0,0-.84912-.15479,2.67084,2.67084,0,0,0-.86621.13037,1.78125,1.78125,0,0,0-.67773.40381,1.88337,1.88337,0,0,0-.44922.69189,2.72368,2.72368,0,0,0-.16016,1.001v3.03174H92.76953Z" style="fill: #fff"/>
    </g>
    <g id="_Group_" data-name="&lt;Group&gt;">
      <g id="_Group_2" data-name="&lt;Group&gt;">
        <path id="_Path_" data-name="&lt;Path&gt;" d="M24.76888,20.30068a4.94881,4.94881,0,0,1,2.35656-4.15206,5.06566,5.06566,0,0,0-3.99116-2.15768c-1.67924-.17626-3.30719,1.00483-4.1629,1.00483-.87227,0-2.18977-.98733-3.6085-.95814a5.31529,5.31529,0,0,0-4.47292,2.72787c-1.934,3.34842-.49141,8.26947,1.3612,10.97608.9269,1.32535,2.01018,2.8058,3.42763,2.7533,1.38706-.05753,1.9051-.88448,3.5794-.88448,1.65876,0,2.14479.88448,3.591.8511,1.48838-.02416,2.42613-1.33124,3.32051-2.66914a10.962,10.962,0,0,0,1.51842-3.09251A4.78205,4.78205,0,0,1,24.76888,20.30068Z" style="fill: #fff"/>
        <path id="_Path_2" data-name="&lt;Path&gt;" d="M22.03725,12.21089a4.87248,4.87248,0,0,0,1.11452-3.49062,4.95746,4.95746,0,0,0-3.20758,1.65961,4.63634,4.63634,0,0,0-1.14371,3.36139A4.09905,4.09905,0,0,0,22.03725,12.21089Z" style="fill: #fff"/>
      </g>
    </g>
  </g>
</svg> 